# xmcd
#
# Track frame offsets:
#	150
#	11227
#	27737
#	50157
#	54145
#	69312
#	74397
#	94282
#	97942
#	118005
#	121810
#	143357
#	160982
#	175657
#	194705
#	212510
#	224932
#	231497
#
# Disc length: 3342 seconds
#
# Revision: 7
# Processed by: cddbd v1.5.2PL0 Copyright (c) Steve Scherf et al.
# Submitted via: audiograbber 1.83.01
#
DISCID=100d0c12
DTITLE=N.W.A - Niggaz4life
DYEAR=1991
DGENRE=Rap
TTITLE0=Prelude
TTITLE1=Real Niggaz Don't Die
TTITLE2=Niggaz 4 Life
TTITLE3=Protest
TTITLE4=Appetite For Destruction
TTITLE5=Don't Drink That Wine
TTITLE6=Alwayz Into Somethin'
TTITLE7=Message To B.A.
TTITLE8=Real Niggaz
TTITLE9=To Kill A Hooker
TTITLE10=One Less Bitch
TTITLE11=Findum, Fuckum and Flee
TTITLE12=Automobile
TTITLE13=She Swallowed It
TTITLE14=I'd Rather Fuck You
TTITLE15=Approach To Danger
TTITLE16=1-900-2-COMPTON
TTITLE17=The Dayz Of Wayback
EXTD=www.RapMusicGuide.com
EXTT0=
EXTT1=
EXTT2=
EXTT3=
EXTT4=
EXTT5=
EXTT6=
EXTT7=
EXTT8=
EXTT9=
EXTT10=
EXTT11=
EXTT12=
EXTT13=
EXTT14=
EXTT15=
EXTT16=
EXTT17=
PLAYORDER=
